<?xml version="1.0" standalone="no"?><!DOCTYPE svg PUBLIC "-//W3C//DTD SVG 1.1//EN" "http://www.w3.org/Graphics/SVG/1.1/DTD/svg11.dtd"><svg t="1576292733765" class="icon" viewBox="0 0 1024 1024" version="1.1" xmlns="http://www.w3.org/2000/svg" p-id="1268" width="128" height="128" xmlns:xlink="http://www.w3.org/1999/xlink"><defs><style type="text/css"></style></defs><path d="M884.4 758.7l-197.1-76.9s-37.5-14.6-52.1-29c-9.4-9.2-8.7-31-0.4-58.8 8.4-27.8 109.3-140.8 109.3-243.4 0-158.5-104.2-287-232.7-287s-232.7 128.5-232.7 287c0 98.3 90 215.5 101.1 236.8 11.1 21.3 8.4 53.8-0.4 63.6-13.2 14.8-61.3 29.5-61.3 29.5l-177.7 79.2c-41.5 14.9-74 54-74 98.3v21c0 48.3 39.2 77.7 87.2 77.7H871.2c48.1 0 87.3-29.5 87.3-77.7v-20.9c-0.1-44.2-32.6-84.5-74.1-99.4z" p-id="1269"></path></svg>